# xmcd CD database file
#
# Track frame offsets:
#	182
#	14160
#	29347
#	44200
#	58387
#	71425
#	86477
#	101827
#	116925
#	131752
#
# Disc length: 2019 seconds
#
# Revision: 3
# Processed by: cddbd v1.5.2PL0 Copyright (c) Steve Scherf et al.
# Submitted via: CDex 1.60beta1
#
DISCID=9d07e10a
DTITLE=Randy Travis - This Is Me
DYEAR=1994
DGENRE=Country
TTITLE0=Honky Tonk Side Of Town
TTITLE1=Before You Kill Us All
TTITLE2=That's Where I Draw The Line
TTITLE3=Wisper My Name
TTITLE4=Small Y'all
TTITLE5=Runaway Train
TTITLE6=This Is Me
TTITLE7=The Box
TTITLE8=Gonna Walk That Line
TTITLE9=Oscar The Angel
EXTD=YEAR: 1994
EXTT0=
EXTT1=
EXTT2=
EXTT3=
EXTT4=
EXTT5=
EXTT6=
EXTT7=
EXTT8=
EXTT9=
PLAYORDER=
